<svg width="110" height="22" viewBox="0 0 110 22" fill="none" xmlns="http://www.w3.org/2000/svg">
<g clipPath="url(#clip0_1957_3269)">
<path d="M20.625 0H0V22H20.625V0Z" fill="#00B67A"/>
<path d="M42.9688 0H22.3438V22H42.9688V0Z" fill="#00B67A"/>
<path d="M65.3125 0H44.6875V22H65.3125V0Z" fill="#00B67A"/>
<path d="M87.6562 0H67.0312V22H87.6562V0Z" fill="#00B67A"/>
<path d="M110 0H89.375V22H110V0Z" fill="#00B67A"/>
<path d="M10.3125 14.827L13.4492 13.9791L14.7598 18.2874L10.3125 14.827ZM17.5312 9.25824H12.0098L10.3125 3.7124L8.61523 9.25824H3.09375L7.5625 12.6957L5.86523 18.2416L10.334 14.8041L13.084 12.6957L17.5312 9.25824Z" fill="white"/>
<path d="M32.6562 14.827L35.793 13.9791L37.1035 18.2874L32.6562 14.827ZM39.875 9.25824H34.3535L32.6562 3.7124L30.959 9.25824H25.4375L29.9062 12.6957L28.209 18.2416L32.6777 14.8041L35.4277 12.6957L39.875 9.25824Z" fill="white"/>
<path d="M55 14.827L58.1367 13.9791L59.4473 18.2874L55 14.827ZM62.2188 9.25824H56.6973L55 3.7124L53.3027 9.25824H47.7812L52.25 12.6957L50.5527 18.2416L55.0215 14.8041L57.7715 12.6957L62.2188 9.25824Z" fill="white"/>
<path d="M77.3438 14.827L80.4805 13.9791L81.791 18.2874L77.3438 14.827ZM84.5625 9.25824H79.041L77.3438 3.7124L75.6465 9.25824H70.125L74.5938 12.6957L72.8965 18.2416L77.3652 14.8041L80.1152 12.6957L84.5625 9.25824Z" fill="white"/>
<path d="M99.6875 14.827L102.824 13.9791L104.135 18.2874L99.6875 14.827ZM106.906 9.25824H101.385L99.6875 3.7124L97.9902 9.25824H92.4688L96.9375 12.6957L95.2402 18.2416L99.709 14.8041L102.459 12.6957L106.906 9.25824Z" fill="white"/>
</g>
<defs>
<clipPath id="clip0_1957_3269">
<rect width="110" height="22" fill="white"/>
</clipPath>
</defs>
</svg>
