<svg width="275" height="42" viewBox="0 0 275 42" fill="none" xmlns="http://www.w3.org/2000/svg">
<path d="M55.4744 23.4398V39H49.2158V3.592H55.3361V16.9564H55.6473C56.2697 15.4581 57.2321 14.2766 58.5346 13.4122C59.8485 12.5362 61.5198 12.0982 63.5484 12.0982C65.3926 12.0982 67.0004 12.4843 68.372 13.2566C69.7436 14.0288 70.804 15.1584 71.5532 16.6452C72.314 18.1321 72.6943 19.9475 72.6943 22.0913V39H66.4357V23.0595C66.4357 21.2729 65.9746 19.8841 65.0525 18.8928C64.142 17.8901 62.8626 17.3887 61.2144 17.3887C60.1079 17.3887 59.1166 17.6307 58.2407 18.1148C57.3762 18.5874 56.6962 19.2732 56.2005 20.1722C55.7165 21.0712 55.4744 22.1605 55.4744 23.4398ZM96 27.8313V12.444H102.259V39H96.1901V34.2801H95.9135C95.3142 35.7669 94.3287 36.9829 92.9571 37.9281C91.597 38.8732 89.92 39.3458 87.926 39.3458C86.1855 39.3458 84.6468 38.9597 83.3098 38.1874C81.9843 37.4036 80.947 36.2683 80.1978 34.7815C79.4486 33.2831 79.074 31.4735 79.074 29.3527V12.444H85.3326V28.3845C85.3326 30.0673 85.7937 31.4043 86.7157 32.3956C87.6378 33.3868 88.8481 33.8824 90.3464 33.8824C91.2685 33.8824 92.1618 33.6577 93.0262 33.2082C93.8907 32.7586 94.5995 32.0901 95.1528 31.2026C95.7176 30.3036 96 29.1798 96 27.8313ZM108.694 39V12.444H114.676V16.9564H114.988C115.541 15.435 116.457 14.2478 117.737 13.3949C119.016 12.5304 120.543 12.0982 122.318 12.0982C124.116 12.0982 125.632 12.5362 126.865 13.4122C128.11 14.2766 128.986 15.4581 129.493 16.9564H129.77C130.358 15.4811 131.349 14.3055 132.744 13.4295C134.15 12.542 135.815 12.0982 137.74 12.0982C140.184 12.0982 142.178 12.8705 143.722 14.415C145.267 15.9594 146.039 18.2128 146.039 21.175V39H139.763V22.1432C139.763 20.4949 139.325 19.2905 138.449 18.5298C137.573 17.7575 136.501 17.3714 135.233 17.3714C133.723 17.3714 132.542 17.844 131.689 18.7891C130.848 19.7227 130.427 20.9387 130.427 22.4371V39H124.289V21.8838C124.289 20.5122 123.874 19.4173 123.044 18.5989C122.226 17.7806 121.154 17.3714 119.829 17.3714C118.93 17.3714 118.111 17.6019 117.374 18.0629C116.636 18.5125 116.048 19.1522 115.61 19.982C115.172 20.8004 114.953 21.757 114.953 22.852V39H108.694ZM160.03 39.536C158.347 39.536 156.832 39.2363 155.483 38.6369C154.146 38.026 153.086 37.127 152.302 35.9398C151.53 34.7527 151.143 33.2888 151.143 31.5484C151.143 30.05 151.42 28.811 151.973 27.8313C152.527 26.8516 153.282 26.0678 154.238 25.48C155.195 24.8921 156.273 24.4484 157.471 24.1487C158.681 23.8375 159.932 23.6127 161.223 23.4744C162.779 23.3131 164.041 23.169 165.009 23.0422C165.977 22.9039 166.681 22.6964 167.119 22.4198C167.568 22.1316 167.793 21.6879 167.793 21.0885V20.9848C167.793 19.6824 167.407 18.6738 166.634 17.9592C165.862 17.2446 164.75 16.8873 163.298 16.8873C161.765 16.8873 160.549 17.2215 159.65 17.8901C158.762 18.5586 158.163 19.3481 157.852 20.2587L152.008 19.4288C152.469 17.8151 153.23 16.4666 154.29 15.3831C155.35 14.2882 156.647 13.4698 158.18 12.9281C159.713 12.3748 161.407 12.0982 163.263 12.0982C164.542 12.0982 165.816 12.2481 167.084 12.5477C168.352 12.8474 169.51 13.343 170.559 14.0346C171.608 14.7146 172.449 15.6425 173.083 16.8181C173.729 17.9938 174.051 19.4634 174.051 21.2268V39H168.035V35.352H167.827C167.447 36.0897 166.911 36.7812 166.219 37.4267C165.539 38.0606 164.681 38.5735 163.643 38.9654C162.618 39.3458 161.413 39.536 160.03 39.536ZM161.655 34.9371C162.912 34.9371 164.001 34.6893 164.923 34.1936C165.845 33.6865 166.554 33.018 167.049 32.1881C167.557 31.3582 167.81 30.4534 167.81 29.4737V26.3444C167.614 26.5058 167.28 26.6556 166.807 26.7939C166.346 26.9322 165.828 27.0533 165.251 27.157C164.675 27.2607 164.104 27.3529 163.54 27.4336C162.975 27.5143 162.485 27.5835 162.07 27.6411C161.137 27.7679 160.301 27.9753 159.563 28.2635C158.826 28.5516 158.243 28.9551 157.817 29.4737C157.391 29.9809 157.177 30.6379 157.177 31.4447C157.177 32.5973 157.598 33.4675 158.439 34.0553C159.281 34.6432 160.353 34.9371 161.655 34.9371ZM186.603 23.4398V39H180.345V12.444H186.327V16.9564H186.638C187.249 15.4696 188.223 14.2882 189.56 13.4122C190.908 12.5362 192.574 12.0982 194.556 12.0982C196.389 12.0982 197.985 12.4901 199.345 13.2739C200.717 14.0576 201.777 15.193 202.527 16.6798C203.287 18.1667 203.662 19.9705 203.65 22.0913V39H197.392V23.0595C197.392 21.2845 196.931 19.8956 196.009 18.8928C195.098 17.8901 193.836 17.3887 192.222 17.3887C191.127 17.3887 190.153 17.6307 189.3 18.1148C188.459 18.5874 187.796 19.2732 187.312 20.1722C186.84 21.0712 186.603 22.1605 186.603 23.4398ZM210.013 39V12.444H216.271V39H210.013ZM213.159 8.67499C212.168 8.67499 211.315 8.3465 210.6 7.68951C209.886 7.021 209.529 6.21994 209.529 5.28633C209.529 4.3412 209.886 3.54014 210.6 2.88315C211.315 2.21464 212.168 1.88039 213.159 1.88039C214.162 1.88039 215.015 2.21464 215.718 2.88315C216.433 3.54014 216.79 4.3412 216.79 5.28633C216.79 6.21994 216.433 7.021 215.718 7.68951C215.015 8.3465 214.162 8.67499 213.159 8.67499ZM222.361 39V35.0235L236.054 17.8555V17.6307H222.811V12.444H243.713V16.7144L230.677 33.5885V33.8133H244.163V39H222.361ZM261.041 39.5187C258.379 39.5187 256.079 38.9654 254.143 37.8589C252.218 36.7409 250.737 35.1618 249.7 33.1217C248.662 31.0701 248.144 28.6554 248.144 25.8776C248.144 23.1459 248.662 20.7485 249.7 18.6854C250.749 16.6107 252.212 14.997 254.091 13.8444C255.97 12.6803 258.177 12.0982 260.713 12.0982C262.35 12.0982 263.894 12.3633 265.346 12.8935C266.81 13.4122 268.101 14.219 269.219 15.314C270.349 16.409 271.236 17.8036 271.882 19.4979C272.527 21.1807 272.85 23.1863 272.85 25.5145V27.4336H251.083V23.2151H266.85C266.839 22.0164 266.58 20.9502 266.072 20.0166C265.565 19.0715 264.856 18.328 263.946 17.7863C263.047 17.2446 261.998 16.9737 260.799 16.9737C259.52 16.9737 258.396 17.2849 257.428 17.9073C256.46 18.5182 255.705 19.325 255.163 20.3278C254.633 21.3191 254.362 22.4083 254.35 23.5954V27.278C254.35 28.8225 254.633 30.148 255.198 31.2545C255.762 32.3495 256.552 33.1909 257.566 33.7787C258.581 34.355 259.768 34.6432 261.128 34.6432C262.038 34.6432 262.862 34.5164 263.6 34.2628C264.338 33.9977 264.977 33.6116 265.519 33.1044C266.061 32.5973 266.47 31.9691 266.747 31.2199L272.59 31.8769C272.222 33.4214 271.518 34.7699 270.481 35.9225C269.455 37.0636 268.141 37.9511 266.539 38.5851C264.937 39.2075 263.104 39.5187 261.041 39.5187Z" fill="white"/>
<path fillRule="evenodd" clipRule="evenodd" d="M13.2799 7C5.9456 7 0 12.9456 0 20.2799C0 27.6141 5.94561 33.5598 13.2799 33.5598H24.9732C25.2579 33.5598 25.5405 33.5508 25.8207 33.5331C26.2669 33.505 26.715 33.599 27.0962 33.8326L32.2463 36.9892C33.6478 37.8482 35.4296 36.7436 35.2835 35.1063L34.8399 30.1339C34.79 29.5738 34.9844 29.0235 35.3363 28.5849C37.1613 26.3106 38.2531 23.4227 38.2531 20.2799C38.2531 12.9456 32.3075 7 24.9732 7H13.2799Z" fill="#AD8BFF"/>
<rect x="21.6213" y="13.6399" width="8.31588" height="13.2799" rx="4.15794" fill="#0F172A"/>
<rect x="8.31592" y="13.6399" width="8.31588" height="13.2799" rx="4.15794" fill="#0F172A"/>
<ellipse cx="213.326" cy="4.42553" rx="4.32638" ry="4.34696" fill="#AD8BFF"/>
</svg>
