<svg width="29" height="20" viewBox="0 0 29 20" fill="none" xmlns="http://www.w3.org/2000/svg">
<path d="M8.49999 18.9468L7.00001 19C3.68629 19 1 16.3138 1 13C1 9.68626 3.68629 7.00005 7.00001 7.00005C7.05004 7.00005 7.0999 7.00061 7.14964 7.00188C7.84384 3.57756 10.8709 1 14.5 1C18.6421 1 22 4.35786 22 8.49995L21.9998 8.55325C22.2448 8.51809 22.4952 8.49995 22.75 8.49995C25.6495 8.49995 28 10.8505 28 13.75C28 16.3948 26.0442 18.5829 23.5 18.9468V19L20.5 18.9468M14.5 10V19M14.5 10L10 14.5M14.5 10L19 14.5" stroke="#AD8BFA" strokeWidth="1.96875" strokeLinecap="round" strokeLinejoin="round"/>
</svg>
