<svg width="29" height="29" viewBox="0 0 29 29" fill="none" xmlns="http://www.w3.org/2000/svg">
<path d="M14.5 7.00001C16.1568 7.00001 17.5 5.65685 17.5 4C17.5 2.34315 16.1568 1 14.5 1C12.8432 1 11.5 2.34315 11.5 4C11.5 5.65685 12.8432 7.00001 14.5 7.00001ZM14.5 7.00001V13M23.5 20.5C23.5 22.1569 22.1569 23.5 20.5 23.5C18.8432 23.5 17.5 22.1569 17.5 20.5C17.5 18.8432 18.8432 17.5 20.5 17.5C22.1569 17.5 23.5 18.8432 23.5 20.5ZM11.5 20.5C11.5 22.1569 10.1569 23.5 8.49999 23.5C6.84315 23.5 5.5 22.1569 5.5 20.5C5.5 18.8432 6.84315 17.5 8.49999 17.5C10.1569 17.5 11.5 18.8432 11.5 20.5ZM4 28H25C26.6569 28 28 26.6569 28 25V16C28 14.3432 26.6569 13 25 13H4C2.34315 13 1 14.3432 1 16V25C1 26.6569 2.34315 28 4 28Z" stroke="#AD8BFA" strokeWidth="1.96875" strokeLinejoin="round"/>
</svg>
