<svg width="24" height="24" viewBox="0 0 24 24" fill="none" xmlns="http://www.w3.org/2000/svg">
<path d="M5.99986 5.99998H17.9998M22.4998 4.49993V19.5C22.4998 20.2956 22.1837 21.0587 21.6211 21.6213C21.0585 22.1839 20.2955 22.4999 19.4999 22.4999H4.49995C3.70432 22.4999 2.94127 22.1839 2.37867 21.6213C1.81607 21.0587 1.5 20.2956 1.5 19.5V4.50008C1.5 3.70444 1.81607 2.94139 2.37867 2.37879C2.94127 1.81619 3.70432 1.50012 4.49995 1.50012H19.5C20.2956 1.50012 21.0587 1.81619 21.6213 2.37879C22.1839 2.94139 22.5 3.70444 22.5 4.50008L22.4998 4.49993Z" stroke="#AD8BFA" strokeWidth="1.96875" strokeLinecap="round" strokeLinejoin="round"/>
</svg>
